# xmcd CD database file
# Copyright (C) 1997 Ti Kan
#
# Track frame offsets:
#  150
#  16127
#  29512
#  47432
#  58397
#  70947
#  82367
#  95900
#  118105
#  131562
#  155332
#  171425
#  188985
#  205775
#  225185
#  236720
#  247912
#  260535
#  273107
#  283067
#  295182
#  307877
#  320787
#
# Disc length: 4555 seconds
#
# Revision: 1
# Processed by: cddbd v1.4b41PL1 Copyright (c) Steve Scherf et al.
# Submitted via: CDWizzard Release:4.35
#
DISCID=5411c917
DTITLE=Roy Orbison - Golden Hits
DYEAR=1900
DGENRE=
TTITLE0=You Got It
TTITLE1=Pretty Woman
TTITLE2=California Blue
TTITLE3=Only The Lonely
TTITLE4=Candy Man
TTITLE5=Love Hurts
TTITLE6=You're The One
TTITLE7=We'll Take The Night
TTITLE8=Heartbreake Hotel
TTITLE9=Careless Heart
TTITLE10=A Love So Beautiful
TTITLE11=The Only One
TTITLE12=In The Real World
TTITLE13=She's A Mystery To My
TTITLE14=Dream Baby (How Long Must I Dream)
TTITLE15=Mean Woman Blues
TTITLE16=I'm Hurting
TTITLE17=Pretty Paper
TTITLE18=Running Scared
TTITLE19=Shahdaroba
TTITLE20=In Dreams
TTITLE21=Blue Angel
TTITLE22=After The Love Has Gone
EXTD=
EXTT0=Roy Orbison
EXTT1=
EXTT2=
EXTT3=
EXTT4=
EXTT5=
EXTT6=
EXTT7=
EXTT8=
EXTT9=
EXTT10=
EXTT11=
EXTT12=
EXTT13=
EXTT14=
EXTT15=
EXTT16=
EXTT17=
EXTT18=
EXTT19=
EXTT20=
EXTT21=
EXTT22=
PLAYORDER=
